<svg width="401" height="480" xmlns="http://www.w3.org/2000/svg" preserveAspectRatio="xMidYMid meet">
 <metadata>Created by potrace 1.16, written by Peter Selinger 2001-2019</metadata>

 <g>
  <title>background</title>
  <rect fill="none" id="canvas_background" height="402" width="582" y="-1" x="-1"/>
 </g>
 <g>
  <title fill="#00d0ff">Layer 1</title>
  <path stroke="null" fill="#00d0ff" id="svg_2" d="m0,72.999994l0,72.000001l200.000003,0l200.000003,0l0,-72.000001l0,-72.000001l-200.000003,0l-200.000003,0l0,72.000001zm84.600001,-36.500001c11.4,7.1 14.8,22.9 7.2,33.700001c-1.9,2.8 -1.9,2.8 0,5.5c7.6,10.9 4.2,26.7 -7.2,33.800001l-4.9,3l-23.9,0.3l-23.8,0.3l0,-40.100001l0,-40.100001l23.8,0.3l23.9,0.3l4.9,3zm43.400001,28.5l0,32l16,0l16,0l0,8l0,8l-24,0l-24,0l0,-40.000001l0,-40.000001l8,0l8,0l0,32zm100.600001,-28.5c3,1.9 6,4.9 7.9,7.9l3,4.9l0,23.7l0,23.7l-3,4.9c-1.9,3 -4.9,6 -7.9,7.9l-4.9,3l-15.7,0l-15.7,0l-4.9,-3c-3,-1.9 -6,-4.9 -7.9,-7.9l-3,-4.9l0,-23.6l0,-23.6l2.8,-4.7c5.6,-9.7 11.5,-11.9 30.3,-11.6c13.7,0.3 14.2,0.4 19,3.3zm80.000001,0c5.6,3.5 10,10 11,16.2l0.7,4.3l-8.2,0c-6.6,0 -8.1,-0.3 -8.1,-1.5c0,-0.9 -1.1,-2.7 -2.5,-4c-2.3,-2.4 -3.1,-2.5 -13.5,-2.5c-10.4,0 -11.2,0.1 -13.5,2.5c-2.1,2 -2.5,3.4 -2.5,8l0,5.5l24.1,0l24.1,0l-0.4,15.8c-0.3,15.6 -0.3,15.9 -3.3,20.8c-1.9,3 -4.9,6 -7.9,7.9l-4.9,3l-15.7,0l-15.7,0l-4.9,-3c-3,-1.9 -6,-4.9 -7.9,-7.9l-3,-4.9l0,-23.6l0,-23.6l2.8,-4.7c5.6,-9.7 11.5,-11.9 30.3,-11.6c13.7,0.3 14.2,0.4 19,3.3z"/>
  <path fill="#00d0ff" id="svg_3" d="m48.000001,56.999994l0,8l13.5,0c13.1,0 13.7,-0.1 16,-2.5c1.6,-1.5 2.5,-3.6 2.5,-5.5c0,-1.9 -0.9,-4 -2.5,-5.5c-2.3,-2.4 -2.9,-2.5 -16,-2.5l-13.5,0l0,8z"/>
  <path fill="#00d0ff" id="svg_4" d="m48.000001,88.999994l0,8l13.5,0c13.1,0 13.7,-0.1 16,-2.5c1.6,-1.5 2.5,-3.6 2.5,-5.5c0,-1.9 -0.9,-4 -2.5,-5.5c-2.3,-2.4 -2.9,-2.5 -16,-2.5l-13.5,0l0,8z"/>
  <path fill="#00d0ff" id="svg_5" d="m194.500003,51.499994c-2.5,2.4 -2.5,2.6 -2.5,21.5c0,18.9 0,19.1 2.5,21.5c2.3,2.4 3.1,2.5 13.5,2.5c10.4,0 11.2,-0.1 13.5,-2.5c2.5,-2.4 2.5,-2.6 2.5,-21.5c0,-18.9 0,-19.1 -2.5,-21.5c-2.3,-2.4 -3.1,-2.5 -13.5,-2.5c-10.4,0 -11.2,0.1 -13.5,2.5z"/>
  <path stroke="null" fill="#00d0ff" id="svg_6" d="m272.000004,86.499994c0,4.6 0.4,6 2.5,8c2.3,2.4 3.1,2.5 13.5,2.5c10.4,0 11.2,-0.1 13.5,-2.5c2.1,-2 2.5,-3.4 2.5,-8l0,-5.5l-16,0l-16,0l0,5.5z"/>
  <path stroke="null" fill="#00d0ff" id="svg_7" d="m0,320.499998l0,159.500002l64.000001,0l64.000001,0l0,-159.500002l0,-159.500002l-64.000001,0l-64.000001,0l0,159.500002zm96.000001,-119.500002l0,8l-32,0l-32,0l0,-8l0,-8l32,0l32,0l0,8zm-16,32l0,8l-24,0l-24,0l0,-8l0,-8l24,0l24,0l0,8zm16,32l0,8l-32,0l-32,0l0,-8l0,-8l32,0l32,0l0,8zm-16,32l0,8l-24,0l-24,0l0,-8l0,-8l24,0l24,0l0,8z"/>
  <path stroke="null" fill="#00d0ff" id="svg_8" d="m144.000002,168.999995l0,8l114.000008,0l114.000008,0l0,-8l0,-8l-114.000008,0l-114.000008,0l0,8z"/>
  <path stroke="null" fill="#00d0ff" id="svg_9" d="m144.000002,200.999996l0,8l98.000001,0l98.000001,0l0,-8l0,-8l-98.000001,0l-98.000001,0l0,8z"/>
  <path stroke="null" fill="#00d0ff" id="svg_10" d="m144.000002,232.999996l0,8l113.000002,0l113.000002,0l0,-8l0,-8l-113.000002,0l-113.000002,0l0,8z"/>
  <path fill="#00d0ff" id="svg_11" d="m144.000002,264.999997l0,8l64.000001,0l64.000001,0l0,-8l0,-8l-64.000001,0l-64.000001,0l0,8z"/>
  <path stroke="null" fill="#00d0ff" id="svg_12" d="m144.000002,296.999997l0,8l113.499993,0l113.499993,0l0,-8l0,-8l-113.499993,0l-113.499993,0l0,8z"/>
  <path stroke="null" fill="#00d0ff" id="svg_13" d="m144.000002,328.999998l0,8l113.000004,0l113.000004,0l0,-8l0,-8l-113.000004,0l-113.000004,0l0,8z"/>
  <path stroke="null" fill="#00d0ff" id="svg_14" d="m144.000002,402.999999l0,50l56.000001,0l56.000001,0l0,-50l0,-50l-56.000001,0l-56.000001,0l0,50z"/>
  <path stroke="null" fill="#00d0ff" id="svg_15" d="m272.000004,357.999998l0,8l49.000003,0l49.000003,0l0,-8l0,-8l-49.000003,0l-49.000003,0l0,8z"/>
  <path stroke="null" fill="#00d0ff" id="svg_16" d="m272.000004,384.999999l0,8l48.999996,0l48.999996,0l0,-8l0,-8l-48.999996,0l-48.999996,0l0,8z"/>
  <path stroke="null" fill="#00d0ff" id="svg_17" d="m272.000003,413.999999l0,8l49.000003,0l49.000003,0l0,-8l0,-8l-49.000003,0l-49.000003,0l0,8z"/>
  <path stroke="null" fill="#00d0ff" id="svg_18" d="m272.000004,443l0,8l49.000003,0l49.000003,0l0,-8l0,-8l-49.000003,0l-49.000003,0l0,8z"/>
  <path stroke="null" fill="#00d0ff" id="svg_20" d="m387.000001,285.000056l0,194l6.5,0l6.5,0l0,-194l0,-194l-6.5,0l-6.5,0l0,194z"/>
  <path stroke="null" fill="#00d0ff" id="svg_21" d="m124.000006,472.999996l0,6l137,0l137,0l0,-6l0,-6l-137,0l-137,0l0,6z"/>
  <path stroke="null" fill="#00d0ff" id="svg_22" d="m-2.999998,152.999995l0,8l7.5,0l7.5,0l0,-8l0,-8l-7.5,0l-7.5,0l0,8z"/>
 </g>
</svg>