<svg width="24" height="24" xmlns="http://www.w3.org/2000/svg">
 <title/>

 <g>
  <title>background</title>
  <rect fill="none" id="canvas_background" height="402" width="582" y="-1" x="-1"/>
 </g>
 <g>
  <title>Layer 1</title>
  <path fill="#00b0ff" id="svg_1" d="m4.5,7.5c0.828,0 1.5,0.672 1.5,1.5l0,10.5c0,0.828 -0.672,1.5 -1.5,1.5l-3,0c-0.827,0 -1.5,-0.672 -1.5,-1.5l0,-10.5c0,-0.828 0.673,-1.5 1.5,-1.5c1,0 2,0 3,0zm9,-4.5c0.828,0 1.5,0.672 1.5,1.5l0,15c0,0.828 -0.672,1.5 -1.5,1.5l-3,0c-0.827,0 -1.5,-0.672 -1.5,-1.5l0,-15c0,-0.828 0.673,-1.5 1.5,-1.5l3,0zm9,7.5c0.828,0 1.5,0.672 1.5,1.5l0,7.5c0,0.828 -0.672,1.5 -1.5,1.5l-3,0c-0.828,0 -1.5,-0.672 -1.5,-1.5l0,-7.5c0,-0.828 0.672,-1.5 1.5,-1.5l3,0z"/>
 </g>
</svg>