<svg width="24" height="24" xmlns="http://www.w3.org/2000/svg">
 <title/>

 <g>
  <title>background</title>
  <rect fill="none" id="canvas_background" height="402" width="582" y="-1" x="-1"/>
 </g>
 <g>
  <title>Layer 1</title>
  <rect stroke="null" rx="100" id="svg_3" height="23.93939" width="23.939388" y="0.060606" x="0.030305" stroke-opacity="null" stroke-width="null" fill="#6879d9"/>
  <path stroke="null" fill="#ffffff" id="svg_1" d="m6.090909,8.833333c0.652364,0 1.181818,0.472889 1.181818,1.055556l0,7.38889c0,0.582667 -0.529455,1.055556 -1.181818,1.055556l-2.363637,0c-0.651576,0 -1.181818,-0.472889 -1.181818,-1.055556l0,-7.38889c0,-0.582667 0.530242,-1.055556 1.181818,-1.055556l2.363637,0zm7.09091,-3.166667c0.652364,0 1.181818,0.472889 1.181818,1.055556l0,10.555557c0,0.582667 -0.529455,1.055556 -1.181818,1.055556l-2.363637,0c-0.651576,0 -1.181818,-0.472889 -1.181818,-1.055556l0,-10.555557c0,-0.582667 0.530242,-1.055556 1.181818,-1.055556l2.363637,0zm7.09091,5.277778c0.652364,0 1.181818,0.472889 1.181818,1.055556l0,5.277778c0,0.582667 -0.529455,1.055556 -1.181818,1.055556l-2.363637,0c-0.652364,0 -1.181818,-0.472889 -1.181818,-1.055556l0,-5.277778c0,-0.582667 0.529455,-1.055556 1.181818,-1.055556l2.363637,0z"/>
 </g>
</svg>