<svg width="512" height="512.00072" xmlns="http://www.w3.org/2000/svg">

 <g>
  <title>background</title>
  <rect fill="none" id="canvas_background" height="402" width="582" y="-1" x="-1"/>
 </g>
 <g>
  <title>Layer 1</title>
  <path id="svg_2" fill="#00d0ff" d="m372.048734,221.64099l0,-96.89454c0,-2.77343 -1.28125,-5.33593 -3.09375,-7.36328l-108.63281,-114.07422c-2.02734,-2.13281 -4.91016,-3.30859 -7.78906,-3.30859l-172.23438,0c-31.79687,0 -57.19531,25.92969 -57.19531,57.73047l0,325.68359c0,31.80078 25.39844,57.30469 57.19531,57.30469l135.95313,0c25.71484,42.68359 72.45703,71.28125 125.70312,71.28125c80.88672,0 146.94141,-65.73437 146.94141,-146.72656c0.10937,-70.75 -50.6875,-129.86719 -116.84766,-143.63281zm-108.84375,-184.1836l72.88282,76.72266l-47.27344,0c-14.08594,0 -25.60938,-11.62891 -25.60938,-25.71485l0,-51.00781zm-182.90625,381.91797c-19.95312,0 -35.85156,-16.00781 -35.85156,-35.96094l0,-325.68359c0,-20.0625 15.89844,-36.38672 35.85156,-36.38672l161.5625,0l0,67.12109c0,25.92969 21.02344,47.0586 46.95313,47.0586l61.89062,0l0,83.33984c-3.19922,-0.10547 -5.76172,-0.42578 -8.53515,-0.42578c-37.24219,0 -71.4961,14.30078 -97.32032,36.71094l-135.52343,0c-5.8711,0 -10.67188,4.80078 -10.67188,10.66797c0,5.87109 4.80078,10.67187 10.67188,10.67187l115.67578,0c-7.57813,10.67188 -13.875,21.34375 -18.78125,33.08203l-96.89453,0c-5.8711,0 -10.67188,4.80078 -10.67188,10.67188c0,5.86719 4.80078,10.67187 10.67188,10.67187l89.95703,0c-2.66797,10.67188 -4.05469,22.51563 -4.05469,34.35938c0,19.20703 3.73438,38.20312 10.45703,54.21094l-125.38672,0l0,-0.10938zm261.76563,71.39063c-69.14844,0 -125.38672,-56.23829 -125.38672,-125.38672c0,-69.14844 56.12891,-125.38672 125.38672,-125.38672c69.2539,0 125.38281,56.23828 125.38281,125.38672c0,69.14843 -56.23437,125.38672 -125.38281,125.38672zm0,0"/>
  <path id="svg_3" fill="#00d0ff" d="m86.22266,223.02734l108.09765,0c5.8711,0 10.67188,-4.80468 10.67188,-10.67187c0,-5.87109 -4.80078,-10.67188 -10.67188,-10.67188l-108.09765,0c-5.8711,0 -10.67188,4.80079 -10.67188,10.67188c0,5.86719 4.80078,10.67187 10.67188,10.67187zm0,0"/>
  <path id="svg_4" fill="#00d0ff" d="m373.59375,363.13672l-43.85547,47.27344l0,-116.52735c0,-5.87109 -4.80469,-10.67187 -10.67187,-10.67187c-5.8711,0 -10.67188,4.80078 -10.67188,10.67187l0,116.52735l-44.17969,-47.27344c-4.05468,-4.26563 -10.88281,-4.58594 -15.15234,-0.53125c-4.26953,4.05469 -4.58984,10.77734 -0.53125,15.04687l62.42578,67.1211c2.02735,2.13281 4.80078,3.41406 7.78906,3.41406c2.98829,0 5.76172,-1.28125 7.78907,-3.41406l62.53515,-67.1211c4.05469,-4.26953 3.83985,-11.09765 -0.42968,-15.04687c-4.375,-4.05469 -10.98829,-3.73438 -15.04688,0.53125zm0,0"/>
 </g>
</svg>