<?xml version="1.0" encoding="UTF-8"?>
<svg xmlns="http://www.w3.org/2000/svg" xmlns:xlink="http://www.w3.org/1999/xlink" viewBox="0 0 512 512" width="512px" height="512px">
<g id="surface9931158">
<path style=" stroke:none;fill-rule:nonzero;fill:rgb(0%,69.01961%,100%);fill-opacity:1;" d="M 255.960938 0.160156 C 221.070312 0.160156 50.054688 98.242188 32.792969 128.15625 C 15.515625 158.089844 15.515625 354.066406 32.792969 383.882812 C 50.132812 413.777344 221.148438 511.839844 255.960938 511.839844 C 290.675781 511.839844 461.695312 413.832031 479.089844 383.957031 C 496.546875 354.003906 496.546875 157.875 479.089844 128.042969 L 479.089844 128.003906 C 461.554688 98.148438 290.558594 0.160156 255.960938 0.160156 Z M 255.921875 39.75 C 289.320312 46.699219 421.660156 122.507812 444.84375 147.953125 C 455.46875 180.246094 455.449219 331.65625 444.84375 364.007812 C 421.816406 389.417969 289.359375 465.320312 255.921875 472.25 C 222.507812 465.363281 90.144531 389.492188 67.078125 364.046875 C 56.550781 331.613281 56.550781 180.34375 67.078125 147.953125 C 90.085938 122.507812 222.488281 46.636719 255.921875 39.75 Z M 196.960938 118.238281 L 157.601562 157.601562 L 177.28125 157.601562 L 177.28125 354.398438 L 216.640625 354.398438 L 216.640625 275.679688 L 295.359375 275.679688 L 295.359375 354.398438 L 275.679688 354.398438 L 315.039062 393.761719 L 354.398438 354.398438 L 334.71875 354.398438 L 334.71875 177.28125 L 295.359375 177.28125 L 295.359375 236.320312 L 216.640625 236.320312 L 216.640625 157.601562 L 236.320312 157.601562 Z M 196.960938 118.238281 "/>
</g>
</svg>
