<svg width="32" height="32" xmlns="http://www.w3.org/2000/svg">

 <g>
  <title>background</title>
  <rect fill="none" id="canvas_background" height="29.825933" width="29.825933" y="-1" x="-1"/>
 </g>
 <g>
  <title>Layer 1</title>
  <path fill="#00b0ff" id="svg_1" d="m21.388192,23.907l-3.595,3.473c-0.624,0.625 -1.484,0.885 -2.432,0.885s-1.807,-0.26 -2.432,-0.885l-5.776,-5.812c-0.62,-0.625 -0.937,-1.537 -0.937,-2.485c0,-0.952 0.317,-1.812 0.937,-2.432l5.76,-5.844c0.62,-0.619 1.5,-0.859 2.448,-0.859s1.808,0.26 2.432,0.885l3.595,3.473c0.687,0.688 1.823,0.663 2.536,-0.052c0.708,-0.713 0.735,-1.848 0.047,-2.536l-3.473,-3.511c-0.901,-0.891 -2.032,-1.505 -3.261,-1.787l3.287,-3.333c0.688,-0.687 0.667,-1.823 -0.047,-2.536s-1.849,-0.735 -2.536,-0.052l-13.469,13.469c-1.307,1.312 -1.989,3.113 -1.989,5.113c0,1.996 0.683,3.86 1.989,5.168l5.797,5.812c1.307,1.307 3.115,1.937 5.115,1.937c1.995,0 3.801,-0.683 5.109,-1.989l3.479,-3.521c0.688,-0.683 0.661,-1.817 -0.052,-2.531s-1.849,-0.74 -2.531,-0.052l-0.001,0.002zm6.28,-6.558l-13.531,0c-0.932,0 -1.692,0.801 -1.692,1.791c0,0.991 0.76,1.797 1.692,1.797l13.531,0c0.933,0 1.693,-0.807 1.693,-1.797c0,-0.989 -0.76,-1.791 -1.693,-1.791z"/>
 </g>
</svg>